# xmcd CD database file
#
# Track frame offsets:
#	150
#	12271
#	27013
#	42099
#	61952
#	85066
#	100831
#	120197
#	134504
#	147436
#	162355
#	183368
#
# Disc length: 2697 seconds
#
# Revision: 0
# Processed by: cddbd v1.5.2PL0 Copyright (c) Steve Scherf et al.
# Submitted via: CDex 1.70beta2
#
DISCID=930a870c
DTITLE=Vail, Randy - Cdn. - Memories of Mine
DYEAR=1900
DGENRE=Country
TTITLE0=No One Left to Sing
TTITLE1=Never Far Away
TTITLE2=Banjo Man
TTITLE3=Heaven's Outlaw
TTITLE4=Lily of the Valley
TTITLE5=Folks of Yesterday
TTITLE6=Time
TTITLE7=Old Fashoined Picture
TTITLE8=The Master
TTITLE9=Judgement Day
TTITLE10=Goodbye Old House
TTITLE11=Little Buddy's Home
EXTD=
EXTT0=
EXTT1=
EXTT2=
EXTT3=
EXTT4=
EXTT5=
EXTT6=
EXTT7=
EXTT8=
EXTT9=
EXTT10=
EXTT11=
PLAYORDER=
